<svg width="24" height="24" viewBox="0 0 24 24" fill="none" xmlns="http://www.w3.org/2000/svg">
<path fill-rule="evenodd" clip-rule="evenodd" d="M12.4982 2C8.69223 2 5.48186 4.83406 5.00978 8.61064L4.02086 16.522C3.8232 18.1033 5.05619 19.5 6.6498 19.5H8.01076L8.06311 19.6178C8.84208 21.3705 10.5802 22.5 12.4982 22.5C14.4162 22.5 16.1543 21.3705 16.9332 19.6178L16.9856 19.5H18.3466C19.9402 19.5 21.1732 18.1033 20.9755 16.522L19.9866 8.61064C19.5145 4.83406 16.3042 2 12.4982 2ZM16.5153 18C16.5041 17.9998 16.493 17.9998 16.4819 18H8.51446C8.50335 17.9998 8.49221 17.9998 8.48105 18H6.6498C5.95844 18 5.42353 17.3941 5.50928 16.708L6.4982 8.79669C6.87644 5.77075 9.44871 3.5 12.4982 3.5C15.5477 3.5 18.12 5.77075 18.4982 8.79669L19.4871 16.708C19.5729 17.3941 19.038 18 18.3466 18H16.5153ZM9.70337 19.5H15.293C14.6788 20.4265 13.6341 21 12.4982 21C11.3622 21 10.3176 20.4265 9.70337 19.5Z" fill=""/>
</svg>
