<svg width="24" height="24" viewBox="0 0 24 24" fill="none" xmlns="http://www.w3.org/2000/svg">
  <path
    d="M11.260 4.282 C 10.301 4.347,9.147 4.588,8.297 4.899 C 7.223 5.293,5.961 6.030,5.100 6.768 C 3.664 7.998,2.573 9.720,2.316 11.160 C 2.247 11.546,2.247 12.454,2.316 12.840 C 2.541 14.102,3.383 15.549,4.598 16.761 C 6.094 18.254,7.996 19.215,10.220 19.603 C 12.083 19.928,14.179 19.707,15.970 18.997 C 17.088 18.553,18.017 17.990,18.946 17.193 C 20.331 16.007,21.431 14.256,21.684 12.840 C 21.753 12.454,21.753 11.546,21.684 11.160 C 21.427 9.720,20.336 7.998,18.900 6.768 C 18.039 6.030,16.777 5.293,15.703 4.899 C 14.816 4.574,13.729 4.352,12.662 4.280 C 12.044 4.237,11.908 4.238,11.260 4.282 M13.411 5.858 C 16.249 6.312,18.622 7.956,19.792 10.280 C 20.148 10.988,20.220 11.282,20.219 12.020 C 20.218 12.702,20.159 12.959,19.858 13.591 C 19.407 14.541,18.716 15.428,17.882 16.129 C 15.441 18.182,12.041 18.792,8.947 17.734 C 6.855 17.019,5.127 15.551,4.198 13.700 C 3.834 12.975,3.742 12.575,3.773 11.860 C 3.800 11.227,3.871 10.970,4.202 10.300 C 5.000 8.688,6.415 7.366,8.204 6.560 C 8.978 6.212,9.937 5.941,10.740 5.843 C 10.938 5.819,11.154 5.792,11.220 5.783 C 11.493 5.746,13.041 5.799,13.411 5.858 M11.595 8.282 C 11.135 8.332,10.822 8.424,10.380 8.639 C 9.720 8.959,9.260 9.358,8.864 9.954 C 8.212 10.934,8.075 12.215,8.501 13.347 C 9.120 14.992,10.884 16.002,12.612 15.700 C 14.115 15.438,15.275 14.350,15.649 12.851 C 15.770 12.366,15.769 11.643,15.648 11.149 C 15.340 9.901,14.508 8.959,13.293 8.485 C 12.852 8.312,12.122 8.225,11.595 8.282 M12.765 9.892 C 13.414 10.138,13.852 10.574,14.109 11.229 C 14.204 11.471,14.216 11.553,14.216 12.000 C 14.216 12.447,14.204 12.529,14.109 12.771 C 13.828 13.487,13.274 13.991,12.558 14.181 C 12.278 14.255,11.722 14.255,11.442 14.181 C 10.644 13.969,10.020 13.332,9.815 12.520 C 9.682 11.990,9.800 11.276,10.100 10.801 C 10.414 10.303,10.957 9.924,11.540 9.798 C 11.841 9.733,12.473 9.782,12.765 9.892 "
    fill="#484848"></path>
</svg>