<?xml version='1.0' encoding='utf-8'?>
<!DOCTYPE svg PUBLIC '-//W3C//DTD SVG 1.1//EN' 'http://www.w3.org/Graphics/SVG/1.1/DTD/svg11.dtd'>
<!-- Uploaded to: SVG Repo, www.svgrepo.com, Generator: SVG Repo Mixer Tools -->
<svg fill="" height="800px" width="800px" version="1.1" xmlns="http://www.w3.org/2000/svg" viewBox="0 0 512 512" xmlns:xlink="http://www.w3.org/1999/xlink" enable-background="new 0 0 512 512">
  <g>
    <g>
      <path d="m419.3,51.9h-142.9v-20.5c0-11.3-9.1-20.4-20.4-20.4s-20.4,9.1-20.4,20.4v20.5h-142.9c-28.1,0-51,22.9-51,51v347c0,28.1 22.9,51 51,51h326.7c28.1,0 51-22.9 51-51v-347c0-28.1-22.9-51-51.1-51zm-66.2,40.8l-19.1,49.3h-156l-19.1-49.3h194.2zm76.4,357.3c0,5.6-4.6,10.2-10.2,10.2h-326.6c-5.6,0-10.2-4.6-10.2-10.2v-347c0-5.6 4.6-10.2 10.2-10.2h22.4l29.8,77.1c3,7.9 10.6,13.1 19,13.1h184.1c8.4,0 16-5.2 19-13.1l29.8-77.1h22.4c5.6,0 10.2,4.6 10.2,10.2v347z"/>
      <path d="m352.3,282.8h-186.8c-11.3,0-20.4-9.1-20.4-20.4 0-11.3 9.1-20.4 20.4-20.4h186.8c11.3,0 20.4,9.1 20.4,20.4 0,11.3-9.2,20.4-20.4,20.4z"/>
      <path d="m352.3,387.2h-186.8c-11.3,0-20.4-9.1-20.4-20.4 0-11.3 9.1-20.4 20.4-20.4h186.8c11.3,0 20.4,9.1 20.4,20.4 0,11.3-9.2,20.4-20.4,20.4z"/>
    </g>
  </g>
</svg>