<svg width="24" height="24" viewBox="0 0 24 24" fill="none" xmlns="http://www.w3.org/2000/svg">
  <path
    d="M3.746 2.298 C 3.463 2.399,3.243 2.701,3.241 2.991 C 3.239 3.275,3.337 3.394,4.684 4.743 L 6.006 6.066 5.693 6.300 C 4.447 7.230,3.436 8.417,2.809 9.689 C 2.402 10.513,2.262 11.115,2.265 12.020 C 2.269 12.999,2.463 13.722,2.952 14.580 C 4.391 17.104,6.841 18.904,9.678 19.522 C 10.305 19.658,10.823 19.720,11.560 19.746 C 13.692 19.821,15.770 19.288,17.532 18.215 C 17.726 18.097,17.897 18.000,17.912 18.000 C 17.926 18.000,18.542 18.601,19.279 19.337 C 20.406 20.460,20.646 20.680,20.780 20.716 C 21.003 20.777,21.115 20.770,21.300 20.684 C 21.693 20.503,21.859 20.075,21.683 19.700 C 21.631 19.588,19.004 16.938,12.994 10.933 C 5.480 3.425,4.360 2.321,4.220 2.283 C 4.015 2.228,3.935 2.231,3.746 2.298 M11.460 4.277 C 11.041 4.317,10.844 4.420,10.685 4.681 C 10.463 5.046,10.673 5.611,11.080 5.741 C 11.135 5.758,11.630 5.776,12.180 5.780 C 13.237 5.788,13.535 5.821,14.325 6.021 C 14.913 6.170,15.365 6.339,15.980 6.639 C 17.516 7.388,18.779 8.547,19.639 9.995 C 20.116 10.798,20.217 11.148,20.218 12.000 C 20.219 12.725,20.157 13.002,19.860 13.609 C 19.654 14.029,19.635 14.202,19.765 14.470 C 20.006 14.968,20.704 15.014,21.042 14.553 C 21.279 14.231,21.527 13.593,21.667 12.948 C 21.762 12.505,21.761 11.468,21.665 11.040 C 21.520 10.401,21.344 9.939,21.048 9.420 C 19.462 6.644,16.700 4.778,13.537 4.343 C 13.000 4.269,11.899 4.234,11.460 4.277 M9.079 9.648 C 8.542 10.287,8.237 11.137,8.234 12.000 C 8.231 13.058,8.616 13.978,9.366 14.704 C 10.012 15.329,10.757 15.673,11.646 15.757 C 12.649 15.852,13.748 15.491,14.462 14.833 L 14.625 14.684 15.722 15.784 C 16.776 16.840,16.817 16.886,16.740 16.946 C 16.696 16.980,16.390 17.140,16.060 17.301 C 15.205 17.720,14.520 17.946,13.560 18.127 C 12.953 18.241,11.405 18.272,10.734 18.184 C 8.070 17.834,5.717 16.289,4.356 13.996 C 3.881 13.197,3.736 12.664,3.771 11.843 C 3.795 11.279,3.879 10.929,4.099 10.467 C 4.663 9.282,5.675 8.118,6.817 7.342 L 7.094 7.154 8.203 8.263 L 9.311 9.371 9.079 9.648 M13.393 13.769 C 13.047 14.070,12.469 14.278,11.976 14.279 C 11.671 14.280,11.178 14.156,10.909 14.011 C 10.629 13.860,10.230 13.479,10.064 13.206 C 9.660 12.540,9.622 11.752,9.959 11.060 C 10.045 10.884,10.173 10.671,10.244 10.586 L 10.372 10.432 11.968 12.026 L 13.564 13.620 13.393 13.769 "
    fill="#484848"></path>
</svg>